# xmcd CD database file
#
# Track frame offsets:
#	150
#	16587
#	31378
#	46001
#	58896
#	73383
#	89263
#	103255
#	116353
#	128059
#	143023
#	156338
#	167961
#	182578
#	195774
#	210453
#	225952
#	239080
#	250837
#	264663
#
# Disc length: 3733 seconds
#
# Revision: 6
# Processed by: cddbd v1.5.2PL0 Copyright (c) Steve Scherf et al.
# Submitted via: CDex 1.70beta2
#
DISCID=0f0e9314
DTITLE=Glenn Miller - In The Mood - The Definitive Collection 2
DYEAR=2003
DGENRE=Jazz
TTITLE0=In The Mood
TTITLE1=(I've Got A Gal In) Kalamazoo
TTITLE2=My Blue Heaven
TTITLE3=Little Brown Jug
TTITLE4=Don't Sit Under The Apple Tree (With Anyone Else But Me)
TTITLE5=The Story Of A Starry Night
TTITLE6=At Last
TTITLE7=Blueberry Hill
TTITLE8=Ding Dong! The Witch Is Dead
TTITLE9=American Patrol
TTITLE10=Bugle Call Rag
TTITLE11=Fools Rush In (Where Angels Fear To Tread)
TTITLE12=The Nearness Of You
TTITLE13=Blue Orchids
TTITLE14=Pennsylvania 6-5000
TTITLE15=Song Of The Volga Boatmen
TTITLE16=Moon Love
TTITLE17=I'll Never Smile Again
TTITLE18=Rhapsody In Blue
TTITLE19=Moonlight Serenade
EXTD=YEAR: 2003
EXTT0=
EXTT1=
EXTT2=
EXTT3=
EXTT4=
EXTT5=
EXTT6=
EXTT7=
EXTT8=
EXTT9=
EXTT10=
EXTT11=
EXTT12=
EXTT13=
EXTT14=
EXTT15=
EXTT16=
EXTT17=
EXTT18=
EXTT19=
PLAYORDER=
